<?xml version="1.0" standalone="no"?>
<!DOCTYPE svg PUBLIC "-//W3C//DTD SVG 20010904//EN"
 "http://www.w3.org/TR/2001/REC-SVG-20010904/DTD/svg10.dtd">
<svg version="1.0" xmlns="http://www.w3.org/2000/svg"
 width="424.000000pt" height="306.000000pt" viewBox="0 0 424.000000 306.000000"
 preserveAspectRatio="xMidYMid meet">

<g transform="translate(0.000000,306.000000) scale(0.100000,-0.100000)"
fill="#000000" stroke="none">
<path d="M2033 2637 c18 -15 24 -32 7 -22 -11 7 -34 -13 -37 -31 -4 -23 -76
-84 -98 -84 -13 0 -25 -5 -27 -10 -4 -14 -82 -40 -140 -47 -35 -4 -51 -2 -63
11 -9 9 -23 16 -32 16 -16 0 -70 28 -91 48 -7 6 -20 12 -28 12 -8 0 -15 10
-15 23 -1 16 -2 18 -6 5 -5 -21 -14 -23 -30 -7 -12 12 -49 -45 -338 -531 -620
-1041 -594 -992 -595 -1111 -1 -171 100 -310 261 -360 62 -19 88 -20 465 -17
395 3 400 3 459 27 86 35 173 124 205 211 31 83 33 184 6 255 -11 27 -70 137
-133 243 -62 106 -113 200 -113 209 0 16 65 129 80 138 10 6 43 -47 315 -510
234 -397 267 -449 317 -487 106 -81 165 -90 544 -86 285 3 302 5 357 27 82 32
166 113 202 193 38 84 45 190 18 268 -31 91 -296 514 -323 516 -8 1 -17 2 -20
3 -3 1 -15 4 -28 7 -12 2 -39 15 -60 28 -44 29 -134 120 -130 132 1 5 -1 19
-5 30 -19 56 -165 59 -270 5 -48 -25 -63 -29 -72 -19 -16 18 -100 156 -270
442 -175 293 -255 422 -255 410 0 -5 -8 6 -17 24 -9 18 -25 37 -37 43 -19 9
-20 9 -3 -4z m-525 -132 c-3 -3 -9 2 -12 12 -6 14 -5 15 5 6 7 -7 10 -15 7
-18z"/>
<path d="M1480 2575 c0 -8 2 -15 4 -15 2 0 6 7 10 15 3 8 1 15 -4 15 -6 0 -10
-7 -10 -15z"/>
</g>
</svg>
